<svg xmlns="http://www.w3.org/2000/svg" version="1.1" xmlns:xlink="http://www.w3.org/1999/xlink" xmlns:svgjs="http://svgjs.dev/svgjs" width="127" height="45" viewBox="0 0 2000 277"><g transform="matrix(1,0,0,1,-1.2121212121212466,-0.30025402348849184)"><svg viewBox="0 0 396 55" data-background-color="#471aa0" preserveAspectRatio="xMidYMid meet" height="277" width="2000" xmlns="http://www.w3.org/2000/svg" xmlns:xlink="http://www.w3.org/1999/xlink"><g id="tight-bounds" transform="matrix(1,0,0,1,0.2400000000000091,0.0596172248803839)"><svg viewBox="0 0 395.52 54.880765550239225" height="54.880765550239225" width="395.52"><g><svg viewBox="0 0 395.52000000000004 54.88076555023923" height="54.880765550239225" width="395.52"><g><svg viewBox="0 0 395.52000000000004 54.88076555023923" height="54.88076555023923" width="395.52000000000004"><g id="textblocktransform"><svg viewBox="0 0 395.52000000000004 54.88076555023923" height="54.88076555023923" width="395.52000000000004" id="textblock"><g><svg viewBox="0 0 395.52000000000004 54.88076555023923" height="54.88076555023923" width="395.52000000000004"><g transform="matrix(1,0,0,1,0,0)"><svg width="395.52000000000004" viewBox="0.05 -37.5 271.68 37.7" height="54.88076555023923" data-palette-color="#000000"><path d="M15.55-7.4L0.05-35 6-35 16-17.7 25.8-35 31.8-35 16.4-7.4 15.55-7.4ZM13.1 0L13.1-14.75 18.95-14.75 18.95 0 13.1 0ZM41-26.55L41-11.55Q41-8.45 42.65-6.68 44.3-4.9 47.2-4.9L47.2-4.9Q50.65-5 52.57-7.45 54.5-9.9 54.5-13.5L54.5-13.5 56.05-13.5Q56.05-8.6 54.7-5.6 53.35-2.6 50.87-1.23 48.4 0.15 45 0.2L45 0.2Q41.95 0.2 39.77-1.05 37.6-2.3 36.42-4.6 35.25-6.9 35.25-10.05L35.25-10.05 35.25-26.55 41-26.55ZM54.5 0L54.5-26.55 60.25-26.55 60.25 0 54.5 0ZM88.09 0L88.09-15Q88.09-18.15 86.45-19.93 84.8-21.7 81.84-21.7L81.84-21.7Q78.4-21.6 76.42-19.15 74.45-16.7 74.45-13.1L74.45-13.1 72.84-13.1Q72.84-18 74.22-21 75.59-24 78.12-25.38 80.65-26.75 84.09-26.75L84.09-26.75Q87.15-26.75 89.32-25.5 91.5-24.25 92.67-21.98 93.84-19.7 93.84-16.5L93.84-16.5 93.84 0 88.09 0ZM107.45 0L107.45-15Q107.45-18.15 105.77-19.93 104.09-21.7 101.15-21.7L101.15-21.7Q97.75-21.6 95.8-19.15 93.84-16.7 93.84-13.1L93.84-13.1 92.2-13.1Q92.2-18 93.57-21 94.95-24 97.47-25.38 100-26.75 103.45-26.75L103.45-26.75Q106.5-26.75 108.67-25.5 110.84-24.25 112.02-21.98 113.2-19.7 113.2-16.5L113.2-16.5 113.2 0 107.45 0ZM68.75 0L68.75-26.55 74.45-26.55 74.45 0 68.75 0ZM123.04-15.2L139.29-15.2Q139.19-17.45 138.27-19.03 137.34-20.6 135.69-21.48 134.04-22.35 131.89-22.35L131.89-22.35Q129.49-22.35 127.72-21.25 125.94-20.15 124.94-18.18 123.94-16.2 123.94-13.55L123.94-13.55Q123.94-10.7 125.02-8.6 126.09-6.5 128.02-5.35 129.94-4.2 132.44-4.2L132.44-4.2Q136.89-4.2 139.94-7.35L139.94-7.35 142.99-4.3Q141.04-2.15 138.24-0.98 135.44 0.2 131.99 0.2L131.99 0.2Q127.89 0.2 124.84-1.5 121.79-3.2 120.09-6.23 118.39-9.25 118.39-13.25L118.39-13.25Q118.39-17.25 120.09-20.28 121.79-23.3 124.84-25 127.89-26.7 131.84-26.75L131.84-26.75Q136.54-26.75 139.39-24.83 142.24-22.9 143.44-19.4 144.64-15.9 144.29-11.1L144.29-11.1 123.04-11.1 123.04-15.2ZM161.59-7.4L146.09-35 152.04-35 162.04-17.7 171.84-35 177.84-35 162.44-7.4 161.59-7.4ZM159.14 0L159.14-14.75 164.99-14.75 164.99 0 159.14 0ZM193.54-26.75L193.54-26.75Q197.64-26.75 200.76-25.05 203.89-23.35 205.64-20.33 207.39-17.3 207.39-13.3L207.39-13.3Q207.39-9.3 205.64-6.25 203.89-3.2 200.76-1.5 197.64 0.2 193.54 0.2L193.54 0.2Q189.44 0.2 186.29-1.5 183.14-3.2 181.39-6.25 179.64-9.3 179.64-13.3L179.64-13.3Q179.64-17.3 181.39-20.33 183.14-23.35 186.29-25.05 189.44-26.75 193.54-26.75ZM193.54-22.1L193.54-22.1Q191.14-22.1 189.29-20.98 187.44-19.85 186.41-17.85 185.39-15.85 185.39-13.25L185.39-13.25Q185.39-10.6 186.41-8.6 187.44-6.6 189.29-5.48 191.14-4.35 193.54-4.35L193.54-4.35Q195.94-4.35 197.76-5.48 199.59-6.6 200.61-8.6 201.64-10.6 201.64-13.25L201.64-13.25Q201.64-15.85 200.61-17.85 199.59-19.85 197.76-20.98 195.94-22.1 193.54-22.1ZM232.74 0L232.74-15Q232.74-18.15 231.09-19.93 229.44-21.7 226.49-21.7L226.49-21.7Q223.04-21.6 221.06-19.15 219.09-16.7 219.09-13.1L219.09-13.1 217.49-13.1Q217.49-18 218.86-21 220.24-24 222.76-25.38 225.29-26.75 228.74-26.75L228.74-26.75Q231.79-26.75 233.96-25.5 236.14-24.25 237.31-21.98 238.49-19.7 238.49-16.5L238.49-16.5 238.49 0 232.74 0ZM252.09 0L252.09-15Q252.09-18.15 250.41-19.93 248.74-21.7 245.79-21.7L245.79-21.7Q242.39-21.6 240.44-19.15 238.49-16.7 238.49-13.1L238.49-13.1 236.84-13.1Q236.84-18 238.21-21 239.59-24 242.11-25.38 244.64-26.75 248.09-26.75L248.09-26.75Q251.14-26.75 253.31-25.5 255.49-24.25 256.66-21.98 257.84-19.7 257.84-16.5L257.84-16.5 257.84 0 252.09 0ZM213.39 0L213.39-26.55 219.09-26.55 219.09 0 213.39 0ZM265.53 0L265.53-26.55 271.23-26.55 271.23 0 265.53 0ZM268.38-37.5L268.38-37.5Q269.83-37.5 270.78-36.55 271.73-35.6 271.73-34.15L271.73-34.15Q271.73-32.75 270.78-31.78 269.83-30.8 268.38-30.8L268.38-30.8Q266.98-30.8 266.01-31.78 265.03-32.75 265.03-34.15L265.03-34.15Q265.03-35.6 266.01-36.55 266.98-37.5 268.38-37.5Z" opacity="1" transform="matrix(1,0,0,1,0,0)" fill="#000000" class="wordmark-text-0" data-fill-palette-color="primary" id="text-0"></path></svg></g></svg></g></svg></g></svg></g></svg></g><defs></defs></svg><rect width="395.52" height="54.880765550239225" fill="none" stroke="none" visibility="hidden"></rect></g></svg></g></svg>