<svg width="70" height="70" viewBox="0 0 128 128" fill="none" xmlns="http://www.w3.org/2000/svg">
<rect width="128" height="128" rx="30" fill="white"/>
<g clip-path="url(#clip0_13_45)">
<g clip-path="url(#clip1_13_45)">
<g clip-path="url(#clip2_13_45)">
<g clip-path="url(#clip3_13_45)">
<g clip-path="url(#clip4_13_45)">
<g clip-path="url(#clip5_13_45)">
<g clip-path="url(#clip6_13_45)">
<g clip-path="url(#clip7_13_45)">
<path d="M112.85 60.8336L69.0143 40.3579C66.4388 39.1567 62.0826 39.1567 59.5072 40.3579L15.6722 60.8336C13.6221 61.7868 13.3175 63.0559 13.3175 63.7329C13.3175 64.4008 13.6221 65.6778 15.6722 66.6321L23.8277 70.4461V79.2694C22.6039 79.6747 21.7062 80.7943 21.7062 82.1539C21.7062 83.8588 23.0884 85.24 24.7888 85.24C26.4892 85.24 27.8714 83.8588 27.8714 82.1539C27.8714 80.7943 26.9737 79.6758 25.7499 79.2694V71.3404L40.8246 78.3841V80.7049C40.8246 82.9645 43.768 84.992 48.4355 86.4117C52.5913 87.6728 58.1068 88.4471 64.1815 88.4471C70.2562 88.4471 75.7762 87.6728 79.9331 86.4117C84.5961 84.992 87.5407 82.9645 87.5407 80.7049V78.46L112.854 66.6332C114.897 65.6699 115.204 64.3997 115.204 63.7329C115.201 63.0559 114.897 61.7868 112.85 60.8336ZM24.7877 83.3166C24.4798 83.3151 24.185 83.1919 23.9676 82.9739C23.7502 82.7558 23.6279 82.4607 23.6273 82.1528C23.6273 81.5449 24.1118 81.0717 24.7118 81.0264C24.7379 81.0264 24.7571 81.0558 24.7865 81.0558C24.816 81.0558 24.8352 81.0264 24.8613 81.0264C25.4624 81.0717 25.9458 81.5449 25.9458 82.1528C25.9461 82.4606 25.8244 82.7559 25.6073 82.974C25.3902 83.1922 25.0954 83.3154 24.7877 83.3166ZM43.5574 68.3506C47.3691 63.9276 55.1668 60.8789 64.1815 60.8789C73.2267 60.8789 81.0516 63.9502 84.8486 68.3959C84.8712 68.4185 84.8848 68.448 84.9086 68.4785C85.178 68.8012 85.3931 69.1385 85.6184 69.4691V77.6324C83.7901 76.2355 80.7482 75.0491 76.9377 74.2227C75.8526 73.9901 74.7603 73.7922 73.6626 73.6294C70.5225 73.1781 67.3538 72.9548 64.1815 72.9615C60.8487 72.9615 57.6868 73.1936 54.8181 73.6147C53.6725 73.78 52.5766 73.9747 51.5363 74.2C47.6725 75.0264 44.5944 76.2208 42.7469 77.6324V69.4612C42.9869 69.1012 43.2235 68.74 43.5167 68.3959L43.5574 68.3506ZM79.5494 84.5109C75.9381 85.6362 70.8007 86.5226 64.1815 86.5226C57.5623 86.5226 52.4261 85.6362 48.8148 84.5109C45.1616 83.3686 43.1487 81.9875 42.8601 80.9653C42.834 80.8838 42.7469 80.7853 42.7469 80.7038C42.7469 80.4626 42.8669 80.2011 43.0887 79.9158C43.3027 79.6373 43.6367 79.3441 44.0578 79.0441C45.8148 77.7819 49.3593 76.4075 54.5329 75.597C55.7375 75.4195 56.9471 75.2768 58.16 75.1691C60.1619 74.9834 62.1711 74.8882 64.1815 74.8838C66.4207 74.8838 68.429 75.0106 70.3366 75.1838C71.5439 75.2904 72.7476 75.4357 73.9456 75.6196C79.0524 76.4392 82.5663 77.7898 84.3075 79.0441C84.7286 79.3441 85.0625 79.6362 85.2765 79.9158C85.4973 80.2011 85.6184 80.4626 85.6184 80.7038C85.6184 80.7853 85.5324 80.8838 85.5052 80.9653C85.2154 81.9875 83.2026 83.3686 79.5494 84.5109ZM112.039 64.8887L87.5395 76.334V68.8985C87.4342 68.7332 87.3471 68.56 87.235 68.3959C87.0425 68.1185 86.7867 67.8627 86.5739 67.6C82.4735 62.4933 74.0067 58.9567 64.1804 58.9567C54.3891 58.9567 45.945 62.4706 41.8333 67.5468C41.6001 67.8321 41.3295 68.1027 41.1269 68.3959C41.0137 68.5612 40.9276 68.7344 40.8223 68.8985V76.2581L25.7477 69.2212V63.6797C25.7477 63.4248 25.6464 63.1803 25.4662 63.0001C25.2859 62.8198 25.0415 62.7185 24.7865 62.7185C24.5316 62.7185 24.2872 62.8198 24.1069 63.0001C23.9267 63.1803 23.8254 63.4248 23.8254 63.6797V68.3212L16.4817 64.8899C15.5658 64.4619 15.2387 63.9966 15.2387 63.734C15.2387 63.4634 15.5658 63.005 16.4817 62.5782L60.3177 42.1024C61.3389 41.6258 62.7766 41.3507 64.2596 41.3507C65.7426 41.3507 67.1803 41.6247 68.2015 42.1024L112.038 62.5782C112.955 63.0061 113.277 63.4634 113.281 63.734C113.282 63.9955 112.956 64.4608 112.039 64.8887Z" fill="#471AA0"/>
</g>
</g>
</g>
</g>
</g>
</g>
</g>
</g>
<defs>
<clipPath id="clip0_13_45">
<rect width="103" height="49.0859" fill="white" transform="translate(12.7607 39.4091)"/>
</clipPath>
<clipPath id="clip1_13_45">
<rect width="101.886" height="48.9901" fill="white" transform="translate(13.3175 39.457)"/>
</clipPath>
<clipPath id="clip2_13_45">
<rect width="101.886" height="48.9901" fill="white" transform="translate(13.3175 39.457)"/>
</clipPath>
<clipPath id="clip3_13_45">
<rect width="101.886" height="48.9901" fill="white" transform="translate(13.3175 39.457)"/>
</clipPath>
<clipPath id="clip4_13_45">
<rect width="101.886" height="48.9901" fill="white" transform="translate(13.3175 39.457)"/>
</clipPath>
<clipPath id="clip5_13_45">
<rect width="101.886" height="48.9901" fill="white" transform="translate(13.3175 39.457)"/>
</clipPath>
<clipPath id="clip6_13_45">
<rect width="101.886" height="48.9901" fill="white" transform="translate(13.3175 39.457)"/>
</clipPath>
<clipPath id="clip7_13_45">
<rect width="101.886" height="48.9901" fill="white" transform="translate(13.3175 39.457)"/>
</clipPath>
</defs>
</svg>
