<svg xmlns="http://www.w3.org/2000/svg" version="1.1" xmlns:xlink="http://www.w3.org/1999/xlink" xmlns:svgjs="http://svgjs.dev/svgjs" width="200" height="45" viewBox="0 0 1500 234"><g transform="matrix(1,0,0,1,-0.9090909090909918,-0.1153983488824224)"><svg viewBox="0 0 396 62" data-background-color="#471aa0" preserveAspectRatio="xMidYMid meet" height="234" width="1500" xmlns="http://www.w3.org/2000/svg" xmlns:xlink="http://www.w3.org/1999/xlink"><g id="tight-bounds" transform="matrix(1,0,0,1,0.2400000000000091,0.030575630900472106)"><svg viewBox="0 0 395.52 61.93884873819906" height="61.93884873819906" width="395.52"><g><svg viewBox="0 0 484.3212495984689 75.84521799043063" height="61.93884873819906" width="395.52"><g transform="matrix(1,0,0,1,88.80124959846889,10.482226220095697)"><svg viewBox="0 0 395.52000000000004 54.88076555023923" height="54.88076555023923" width="395.52000000000004"><g id="textblocktransform"><svg viewBox="0 0 395.52000000000004 54.88076555023923" height="54.88076555023923" width="395.52000000000004" id="textblock"><g><svg viewBox="0 0 395.52000000000004 54.88076555023923" height="54.88076555023923" width="395.52000000000004"><g transform="matrix(1,0,0,1,0,0)"><svg width="395.52000000000004" viewBox="0.05 -37.5 271.68 37.7" height="54.88076555023923" data-palette-color="#000000"><path d="M15.55-7.4L0.05-35 6-35 16-17.7 25.8-35 31.8-35 16.4-7.4 15.55-7.4ZM13.1 0L13.1-14.75 18.95-14.75 18.95 0 13.1 0ZM41-26.55L41-11.55Q41-8.45 42.65-6.68 44.3-4.9 47.2-4.9L47.2-4.9Q50.65-5 52.57-7.45 54.5-9.9 54.5-13.5L54.5-13.5 56.05-13.5Q56.05-8.6 54.7-5.6 53.35-2.6 50.87-1.23 48.4 0.15 45 0.2L45 0.2Q41.95 0.2 39.77-1.05 37.6-2.3 36.42-4.6 35.25-6.9 35.25-10.05L35.25-10.05 35.25-26.55 41-26.55ZM54.5 0L54.5-26.55 60.25-26.55 60.25 0 54.5 0ZM88.09 0L88.09-15Q88.09-18.15 86.45-19.93 84.8-21.7 81.84-21.7L81.84-21.7Q78.4-21.6 76.42-19.15 74.45-16.7 74.45-13.1L74.45-13.1 72.84-13.1Q72.84-18 74.22-21 75.59-24 78.12-25.38 80.65-26.75 84.09-26.75L84.09-26.75Q87.15-26.75 89.32-25.5 91.5-24.25 92.67-21.98 93.84-19.7 93.84-16.5L93.84-16.5 93.84 0 88.09 0ZM107.45 0L107.45-15Q107.45-18.15 105.77-19.93 104.09-21.7 101.15-21.7L101.15-21.7Q97.75-21.6 95.8-19.15 93.84-16.7 93.84-13.1L93.84-13.1 92.2-13.1Q92.2-18 93.57-21 94.95-24 97.47-25.38 100-26.75 103.45-26.75L103.45-26.75Q106.5-26.75 108.67-25.5 110.84-24.25 112.02-21.98 113.2-19.7 113.2-16.5L113.2-16.5 113.2 0 107.45 0ZM68.75 0L68.75-26.55 74.45-26.55 74.45 0 68.75 0ZM123.04-15.2L139.29-15.2Q139.19-17.45 138.27-19.03 137.34-20.6 135.69-21.48 134.04-22.35 131.89-22.35L131.89-22.35Q129.49-22.35 127.72-21.25 125.94-20.15 124.94-18.18 123.94-16.2 123.94-13.55L123.94-13.55Q123.94-10.7 125.02-8.6 126.09-6.5 128.02-5.35 129.94-4.2 132.44-4.2L132.44-4.2Q136.89-4.2 139.94-7.35L139.94-7.35 142.99-4.3Q141.04-2.15 138.24-0.98 135.44 0.2 131.99 0.2L131.99 0.2Q127.89 0.2 124.84-1.5 121.79-3.2 120.09-6.23 118.39-9.25 118.39-13.25L118.39-13.25Q118.39-17.25 120.09-20.28 121.79-23.3 124.84-25 127.89-26.7 131.84-26.75L131.84-26.75Q136.54-26.75 139.39-24.83 142.24-22.9 143.44-19.4 144.64-15.9 144.29-11.1L144.29-11.1 123.04-11.1 123.04-15.2ZM161.59-7.4L146.09-35 152.04-35 162.04-17.7 171.84-35 177.84-35 162.44-7.4 161.59-7.4ZM159.14 0L159.14-14.75 164.99-14.75 164.99 0 159.14 0ZM193.54-26.75L193.54-26.75Q197.64-26.75 200.76-25.05 203.89-23.35 205.64-20.33 207.39-17.3 207.39-13.3L207.39-13.3Q207.39-9.3 205.64-6.25 203.89-3.2 200.76-1.5 197.64 0.2 193.54 0.2L193.54 0.2Q189.44 0.2 186.29-1.5 183.14-3.2 181.39-6.25 179.64-9.3 179.64-13.3L179.64-13.3Q179.64-17.3 181.39-20.33 183.14-23.35 186.29-25.05 189.44-26.75 193.54-26.75ZM193.54-22.1L193.54-22.1Q191.14-22.1 189.29-20.98 187.44-19.85 186.41-17.85 185.39-15.85 185.39-13.25L185.39-13.25Q185.39-10.6 186.41-8.6 187.44-6.6 189.29-5.48 191.14-4.35 193.54-4.35L193.54-4.35Q195.94-4.35 197.76-5.48 199.59-6.6 200.61-8.6 201.64-10.6 201.64-13.25L201.64-13.25Q201.64-15.85 200.61-17.85 199.59-19.85 197.76-20.98 195.94-22.1 193.54-22.1ZM232.74 0L232.74-15Q232.74-18.15 231.09-19.93 229.44-21.7 226.49-21.7L226.49-21.7Q223.04-21.6 221.06-19.15 219.09-16.7 219.09-13.1L219.09-13.1 217.49-13.1Q217.49-18 218.86-21 220.24-24 222.76-25.38 225.29-26.75 228.74-26.75L228.74-26.75Q231.79-26.75 233.96-25.5 236.14-24.25 237.31-21.98 238.49-19.7 238.49-16.5L238.49-16.5 238.49 0 232.74 0ZM252.09 0L252.09-15Q252.09-18.15 250.41-19.93 248.74-21.7 245.79-21.7L245.79-21.7Q242.39-21.6 240.44-19.15 238.49-16.7 238.49-13.1L238.49-13.1 236.84-13.1Q236.84-18 238.21-21 239.59-24 242.11-25.38 244.64-26.75 248.09-26.75L248.09-26.75Q251.14-26.75 253.31-25.5 255.49-24.25 256.66-21.98 257.84-19.7 257.84-16.5L257.84-16.5 257.84 0 252.09 0ZM213.39 0L213.39-26.55 219.09-26.55 219.09 0 213.39 0ZM265.53 0L265.53-26.55 271.23-26.55 271.23 0 265.53 0ZM268.38-37.5L268.38-37.5Q269.83-37.5 270.78-36.55 271.73-35.6 271.73-34.15L271.73-34.15Q271.73-32.75 270.78-31.78 269.83-30.8 268.38-30.8L268.38-30.8Q266.98-30.8 266.01-31.78 265.03-32.75 265.03-34.15L265.03-34.15Q265.03-35.6 266.01-36.55 266.98-37.5 268.38-37.5Z" opacity="1" transform="matrix(1,0,0,1,0,0)" fill="#000000" class="wordmark-text-0" data-fill-palette-color="primary" id="text-0"></path></svg></g></svg></g></svg></g></svg></g><g><svg viewBox="0 0 75.84521799043061 75.84521799043063" height="75.84521799043063" width="75.84521799043061"><g><svg></svg></g><g id="icon-0"><svg viewBox="0 0 75.84521799043061 75.84521799043063" height="75.84521799043063" width="75.84521799043061"><g><path transform="scale(0.75845,0.75845)" d="M30 100c-16.569 0-30-13.431-30-30v-40c0-16.569 13.431-30 30-30h40c16.569 0 30 13.431 30 30v40c0 16.569-13.431 30-30 30z" fill="#ffffff" fill-rule="nonzero" stroke="none" stroke-width="1" stroke-linecap="butt" stroke-linejoin="miter" stroke-miterlimit="10" stroke-dasharray="" stroke-dashoffset="0" font-family="none" font-weight="none" font-size="none" text-anchor="none" style="mix-blend-mode: normal" data-fill-palette-color="accent"></path></g><g transform="matrix(1,0,0,1,15.169043598086123,26.98199950444402)"><svg viewBox="0 0 45.507130794258366 21.881218981542585" height="21.881218981542585" width="45.507130794258366"><g><svg xmlns="http://www.w3.org/2000/svg" xmlns:xlink="http://www.w3.org/1999/xlink" version="1.1" x="0" y="0" viewBox="0 23.36325 90 43.274750000000004" style="enable-background:new 0 0 90 90;" xml:space="preserve" height="21.881218981542585" width="45.507130794258366" class="icon-dxe-0" data-fill-palette-color="quaternary" id="dxe-0"><path d="M87.921 42.246L49.199 24.159C46.924 23.098 43.076 23.098 40.801 24.159L2.08 42.246C0.269 43.088 0 44.209 0 44.807 0 45.397 0.269 46.525 2.08 47.368L9.284 50.737V58.531C8.203 58.889 7.41 59.878 7.41 61.079 7.41 62.585 8.631 63.805 10.133 63.805S12.856 62.585 12.856 61.079C12.856 59.878 12.063 58.89 10.982 58.531V51.527L24.298 57.749V59.799C24.298 61.795 26.898 63.586 31.021 64.84 34.692 65.954 39.564 66.638 44.93 66.638S55.172 65.954 58.844 64.84C62.963 63.586 65.564 61.795 65.564 59.799V57.816L87.924 47.369C89.729 46.518 90 45.396 90 44.807 89.997 44.209 89.729 43.088 87.921 42.246M10.132 62.106A1.03 1.03 0 0 1 9.107 61.078C9.107 60.541 9.535 60.123 10.065 60.083 10.088 60.083 10.105 60.109 10.131 60.109S10.174 60.083 10.197 60.083C10.728 60.123 11.155 60.541 11.155 61.078A1.027 1.027 0 0 1 10.132 62.106M26.712 48.886C30.079 44.979 36.967 42.286 44.93 42.286 52.92 42.286 59.832 44.999 63.186 48.926 63.206 48.946 63.218 48.972 63.239 48.999 63.477 49.284 63.667 49.582 63.866 49.874V57.085C62.251 55.851 59.564 54.803 56.198 54.073A46 46 0 0 0 53.305 53.549 58 58 0 0 0 44.93 52.959C41.986 52.959 39.193 53.164 36.659 53.536 35.647 53.682 34.679 53.854 33.76 54.053 30.347 54.783 27.628 55.838 25.996 57.085V49.867C26.208 49.549 26.417 49.23 26.676 48.926zM58.505 63.161C55.315 64.155 50.777 64.938 44.93 64.938S34.546 64.155 31.356 63.161C28.129 62.152 26.351 60.932 26.096 60.029 26.073 59.957 25.996 59.87 25.996 59.798 25.996 59.585 26.102 59.354 26.298 59.102 26.487 58.856 26.782 58.597 27.154 58.332 28.706 57.217 31.837 56.003 36.407 55.287A56 56 0 0 1 39.611 54.909 59 59 0 0 1 44.93 54.657C46.908 54.657 48.682 54.769 50.367 54.922A50 50 0 0 1 53.555 55.307C58.066 56.031 61.17 57.224 62.708 58.332 63.08 58.597 63.375 58.855 63.564 59.102 63.759 59.354 63.866 59.585 63.866 59.798 63.866 59.87 63.79 59.957 63.766 60.029 63.51 60.932 61.732 62.152 58.505 63.161M87.204 45.828L65.563 55.938V49.37C65.47 49.224 65.393 49.071 65.294 48.926 65.124 48.681 64.898 48.455 64.71 48.223 61.088 43.712 53.609 40.588 44.929 40.588 36.28 40.588 28.821 43.692 25.189 48.176 24.983 48.428 24.744 48.667 24.565 48.926 24.465 49.072 24.389 49.225 24.296 49.37V55.871L10.98 49.655V44.76A0.848 0.848 0 1 0 9.282 44.76V48.86L2.795 45.829C1.986 45.451 1.697 45.04 1.697 44.808 1.697 44.569 1.986 44.164 2.795 43.787L41.517 25.7C42.419 25.279 43.689 25.036 44.999 25.036S47.579 25.278 48.481 25.7L87.203 43.787C88.013 44.165 88.298 44.569 88.301 44.808 88.302 45.039 88.014 45.45 87.204 45.828" fill="#471aa0" data-fill-palette-color="quaternary"></path></svg></g></svg></g></svg></g></svg></g></svg></g><defs></defs></svg><rect width="395.52" height="61.93884873819906" fill="none" stroke="none" visibility="hidden"></rect></g></svg></g></svg>